#!OML:ASF F:\VICON\USERDATA\INSTALL\Justin_Nancy\Justin_Nancy.ASF
:FULLY-SPECIFIED
:DEGREES
81
root -2.89701 16.5132 13.3147 -2.83324 30.3994 -15.9643
lowerback 14.568 7.16655 8.04235
upperback 0.898297 11.2045 4.56055
thorax -6.5377 5.3118 -1.75658
lowerneck -17.5837 -7.1935 -8.30818
upperneck 15.6463 -9.07656 7.21396
head 8.47952 -4.07352 2.61175
rclavicle 7.03698e-014 -1.82882e-014
rhumerus -36.0208 27.8464 -93.9675
rradius 115.509
rwrist -7.19198
rhand -18.9479 33.1056
rfingers 7.12502
rthumb 7.35542 3.25346
lclavicle 7.03698e-014 -1.82882e-014
lhumerus -63.624 -0.163908 89.0702
lradius 96.7478
lwrist 21.092
lhand -22.8033 6.21797
lfingers 7.12502
lthumb 3.63303 36.1668
rfemur 16.1737 2.49303 25.6644
rtibia 36.2948
rfoot 14.7218 7.34725
rtoes -12.4019
lfemur -46.8779 8.11788 -34.5822
ltibia 38.1883
lfoot 8.30626 -6.61399
ltoes 6.29183
82
root -2.6554 16.4867 13.9237 -2.56041 31.3789 -15.0212
lowerback 13.9471 6.8662 6.68054
upperback 0.987421 10.5034 4.35801
thorax -6.34505 5.02262 -1.05333
lowerneck -17.6463 -6.97587 -8.33329
upperneck 15.7045 -8.80448 7.38641
head 8.49766 -3.92773 2.71113
rclavicle 1.91628e-013 2.42517e-014
rhumerus -37.3094 28.0503 -95.1721
rradius 114.893
rwrist -7.30817
rhand -18.3212 33.1132
rfingers 7.12502
rthumb 7.96038 3.28307
lclavicle 1.91628e-013 2.42517e-014
lhumerus -64.1349 0.459037 89.4249
lradius 97.5191
lwrist 21.0754
lhand -22.7704 5.80993
lfingers 7.12502
lthumb 3.66481 35.7582
rfemur 14.8756 1.04149 24.0523
rtibia 41.1464
rfoot 12.5854 6.49931
rtoes -12.1946
lfemur -44.7812 7.9894 -35.8159
ltibia 38.4691
lfoot 9.20935 -6.36712
ltoes 5.72929
83
root -2.4537 16.4595 14.4955 -3.18332 31.9401 -15.7271
lowerback 14.0811 6.46004 6.453
upperback 0.983438 9.97639 4.66827
thorax -6.54756 4.7711 -0.544415
lowerneck -17.5912 -6.75139 -8.60409
upperneck 15.5249 -8.44009 7.49202
head 8.41411 -3.76591 2.84296
rclavicle 5.93372e-014 8.34896e-015
rhumerus -38.649 28.2875 -96.1924
rradius 114.105
rwrist -7.68946
rhand -17.3344 33.2612
rfingers 7.12502
rthumb 8.91266 3.46946
lclavicle 5.93372e-014 8.34896e-015
lhumerus -64.1003 1.54251 89.9245
lradius 97.9929
lwrist 20.6706
lhand -20.8548 4.75267
lfingers 7.12502
lthumb 5.51456 34.6609
rfemur 13.0137 -0.00873008 24.3384
rtibia 46.0756
rfoot 11.848 3.99567
rtoes -13.1224
lfemur -42.9155 7.50776 -34.8298
ltibia 39.1123
lfoot 10.2855 -5.83617
ltoes 6.18309
84
root -2.25597 16.4217 15.0571 -3.95352 32.3492 -16.7535
lowerback 14.2592 6.03191 6.51373
upperback 1.01298 9.46823 4.99489
thorax -6.68506 4.52452 -0.1689
lowerneck -17.4735 -6.40766 -8.50143
upperneck 15.0617 -7.96005 7.40444
head 8.18834 -3.54984 2.86612
rclavicle 8.14023e-014 -2.78299e-015
rhumerus -40.097 28.4252 -97.2743
rradius 113.035
rwrist -7.06251
rhand -18.1899 33.3503
rfingers 7.12502
rthumb 8.08706 3.52504
lclavicle 8.14023e-014 -2.78299e-015
lhumerus -63.5424 2.54083 90.5352
lradius 98.4472
lwrist 20.306
lhand -19.0879 4.38912
lfingers 7.12502
lthumb 7.22033 34.2459
rfemur 10.9016 -1.0571 24.8895
rtibia 50.8811
rfoot 12.0062 1.0892
rtoes -14.3041
lfemur -41.0656 7.26949 -33.5161
ltibia 39.9839
lfoot 10.7184 -6.44825
ltoes 30.1764
85
root -2.03768 16.3892 15.6421 -4.4729 32.6579 -17.4342
lowerback 13.906 5.73882 6.15678
upperback 1.13536 9.00798 5.2689
thorax -6.47437 4.33035 0.434163
lowerneck -17.3907 -6.13358 -8.3299
upperneck 14.7265 -7.60016 7.32234
head 8.021 -3.38288 2.86137
rclavicle -6.7885e-014 -6.16232e-014
rhumerus -41.5666 28.0815 -98.1034
rradius 111.923
rwrist -6.5635
rhand -19.6561 32.7491
rfingers 7.12502
rthumb 6.67177 2.87418
lclavicle -6.7885e-014 -6.16232e-014
lhumerus -62.7396 2.91568 91.5336
lradius 99.0025
lwrist 20.1305
lhand -18.935 4.20465
lfingers 7.12502
lthumb 7.36793 34.0564
rfemur 8.74378 -2.09081 24.9838
rtibia 55.4972
rfoot 12.0686 -1.89605
rtoes -13.2903
lfemur -39.0737 7.54215 -32.7177
ltibia 41.01
lfoot 5.9904 -9.67133
ltoes 35.477
86
root -1.81167 16.3547 16.2225 -4.84071 32.9407 -17.6899
lowerback 13.5981 5.4645 5.4982
upperback 1.33164 8.52047 5.4765
thorax -6.23208 4.12885 1.13202
lowerneck -17.4619 -5.91665 -8.40994
upperneck 14.554 -7.28191 7.39693
head 7.95554 -3.22962 2.94033
rclavicle 2.32081e-014 -3.71727e-014
rhumerus -42.8801 27.4058 -98.5387
rradius 110.829
rwrist -6.4976
rhand -19.8437 32.1403
rfingers 7.12502
rthumb 6.4907 2.25973
lclavicle 2.32081e-014 -3.71727e-014
lhumerus -61.6604 2.88747 92.6572
lradius 99.5501
lwrist 19.7531
lhand -18.1779 4.12655
lfingers 7.12502
lthumb 8.09861 33.9514
rfemur 6.58688 -3.13458 24.5587
rtibia 59.9086
rfoot 11.5223 -4.40754
rtoes -10.9094
lfemur -36.6247 7.84705 -32.23
ltibia 42.0008
lfoot 0.164173 -7.65429
ltoes 33.2049
87
root -1.56453 16.2949 16.7725 -3.89065 33.9559 -16.566
lowerback 12.9458 5.0099 4.36296
upperback 1.25978 7.6633 5.02639
thorax -6.03294 3.73709 1.48505
lowerneck -17.5801 -5.68992 -8.22613
upperneck 14.4812 -7.02367 7.49158
head 7.92706 -3.08573 2.97467
rclavicle 6.66426e-014 2.98177e-015
rhumerus -44.2047 26.2564 -99.1964
rradius 109.582
rwrist -6.41491
rhand -19.0402 31.9842
rfingers 7.12502
rthumb 7.26639 2.12901
lclavicle 6.66426e-014 2.98177e-015
lhumerus -60.2845 2.52547 93.4848
lradius 99.8914
lwrist 19.3584
lhand -17.4852 4.24745
lfingers 7.12502
lthumb 8.7671 34.0454
rfemur 3.94076 -5.24269 22.2286
rtibia 64.1401
rfoot 10.3795 -5.16067
rtoes -11.7455
lfemur -34.429 7.26292 -33.2191
ltibia 42.7424
lfoot -4.66166 -5.04025
ltoes 31.8618
